<svg xmlns="http://www.w3.org/2000/svg" style="display: none">
<symbol id="icon_antenna" viewBox="0 0 64 64">
<path d="M61.546 44.195 44.66 27.185l1.874-9.23c.484.188.998.287 1.517.29h.013a4.318 4.318 0 1 0-4.017-2.87l-9.92 1.21L17.945.32a1.066 1.066 0 0 0-.753-.32c-.28.001-.548.113-.747.31L13.42 3.318a1.067 1.067 0 0 0 0 1.509l1.628 1.65a29.885 29.885 0 0 0 5.04 35.327c.084.081.183.147.291.195a6.192 6.192 0 0 0-.104 1.094v12.374h-12.8A5.34 5.34 0 0 0 2.14 60.8v2.133c0 .59.478 1.067 1.067 1.067h49.067c.589 0 1.067-.478 1.067-1.067V60.8a5.34 5.34 0 0 0-5.334-5.333h-12.8v-5.484c2.005.42 4.048.635 6.097.64a29.699 29.699 0 0 0 14.08-3.567l1.637 1.646c.198.202.469.318.753.32.28-.002.548-.113.746-.31l3.025-3.009a1.067 1.067 0 0 0 0-1.508ZM46.56 12.466a2.133 2.133 0 1 1 1.503 3.646h-.006a2.133 2.133 0 0 1-1.493-3.646h-.004Zm-2.511 7.01-1.197 5.89-2.351-2.364 3.548-3.527Zm-1.212-1.804-3.84 3.817-2.97-2.987 6.81-.83ZM48.008 57.6a3.2 3.2 0 0 1 3.2 3.2v1.067H4.275V60.8a3.2 3.2 0 0 1 3.2-3.2h40.533Zm-14.933-4.267v2.134H22.408v-2.134h10.667ZM22.408 51.2v-8.107c0-2.587 2.393-4.693 5.333-4.693 2.941 0 5.334 2.106 5.334 4.693V51.2H22.408Zm12.8-3.392v-4.715c0-3.764-3.35-6.826-7.466-6.826a7.6 7.6 0 0 0-6.563 3.572 27.739 27.739 0 0 1-4.557-31.774l37.204 37.417a27.642 27.642 0 0 1-18.618 2.326Zm22.578-1.367-1.503-1.512L17.181 5.591 15.672 4.08l1.51-1.504 15.87 15.96c.007 0 .011.013.019.019L59.3 44.937l-1.514 1.504Z"/>
<path d="M27.751 40.533h-.01a3.2 3.2 0 0 0-.01 6.4h.01a3.2 3.2 0 0 0 .01-6.4Zm.747 3.957a1.067 1.067 0 0 1-1.818-.762 1.068 1.068 0 0 1 1.061-1.061 1.067 1.067 0 0 1 .747 1.823h.01Z"/>
</symbol>

<symbol id="icon_clock" viewBox="0 0 64 64">
<path d="M62.593 30.602C62.59 13.698 48.883-.003 31.977 0 15.073.003 1.372 13.71 1.375 30.616a30.61 30.61 0 0 0 21.299 29.152c.12.038.247.058.373.057.242 0 .478-.065.685-.187.27-.16.472-.414.567-.713l7.73-24.5a3.826 3.826 0 1 0-1.68-7.27L20.137 16.942a1.275 1.275 0 0 0-1.803 1.804l10.207 10.218a3.752 3.752 0 0 0 1.072 4.618l-7.365 23.346C7.692 51.566.239 35.42 5.601 20.864 10.963 6.31 27.11-1.145 41.665 4.217 56.22 9.58 63.673 25.726 58.312 40.281a28.087 28.087 0 0 1-14.925 15.947l-.796-3.749a1.275 1.275 0 0 0-2.096-.687l-7.674 6.851a1.275 1.275 0 0 0 .462 2.169l9.797 3.127a1.275 1.275 0 0 0 1.638-1.48l-.782-3.678a30.51 30.51 0 0 0 18.657-28.178Zm-30.609-1.275a1.276 1.276 0 1 1 0 2.552 1.276 1.276 0 0 1 0-2.552Zm4.201 29.728 4.368-3.896 1.206 5.68-5.574-1.784Z"/>
<path d="M30.709 6.37v2.55a1.275 1.275 0 1 0 2.55 0V6.37a1.276 1.276 0 0 0-2.55 0ZM7.752 29.327a1.275 1.275 0 0 0 0 2.55h2.55a1.275 1.275 0 1 0 0-2.55h-2.55ZM56.216 31.878a1.275 1.275 0 1 0 0-2.55h-2.55a1.276 1.276 0 0 0 0 2.55h2.55Z"/>
</symbol>

<symbol id="icon_diagram" viewBox="0 0 64 64">
<path d="M29.851 29.93h2.132v9.594h-2.132V29.93ZM38.38 34.194h2.132v5.33H38.38v-5.33ZM21.322 37.392h2.132v2.132h-2.132v-2.132ZM14.925 36.326h2.133v3.198h-2.133v-3.198Z"/>
<path d="M3.198 56.582h51.173a3.198 3.198 0 0 0 3.199-3.198v-4.265a3.198 3.198 0 0 0-3.199-3.198h-1.066V19.334l6.056-5.736a3.216 3.216 0 1 0-1.493-1.526l-4.563 4.325v-2.46a3.198 3.198 0 0 0-3.198-3.198H7.463a3.198 3.198 0 0 0-3.199 3.199V45.92H3.198A3.198 3.198 0 0 0 0 49.119v4.265a3.198 3.198 0 0 0 3.198 3.198Zm57.57-46.909a1.066 1.066 0 1 1 0 2.133 1.066 1.066 0 0 1 0-2.133ZM6.397 13.938c0-.59.477-1.067 1.066-1.067h42.644c.589 0 1.066.478 1.066 1.067v4.477l-2.132 2.026V16.07c0-.589-.477-1.066-1.066-1.066H9.595c-.589 0-1.066.477-1.066 1.066v26.652c0 .59.477 1.067 1.066 1.067h38.38c.589 0 1.066-.478 1.066-1.067V23.374l2.132-2.02V45.92H6.397V13.938Zm9.595 13.859a3.198 3.198 0 1 0 2.214 5.497l3.706 1.86c.43.215.953.114 1.273-.246l7.877-8.863 7.744 5.803c.416.311.996.278 1.372-.079l6.73-6.375v16.262H10.662v-24.52H46.91v5.32L39.366 29.6l-7.81-5.855a1.067 1.067 0 0 0-1.435.145l-7.986 8.985-2.986-1.493c.022-.128.036-.257.041-.387a3.199 3.199 0 0 0-3.198-3.198Zm1.066 3.198a1.066 1.066 0 1 1-2.133 0 1.066 1.066 0 0 1 2.133 0Zm6.396 17.058h10.661v1.066c0 .589-.477 1.066-1.066 1.066H24.52a1.066 1.066 0 0 1-1.066-1.066v-1.066ZM2.132 49.12c0-.589.478-1.066 1.066-1.066h18.124v1.066a3.198 3.198 0 0 0 3.198 3.199h8.53a3.198 3.198 0 0 0 3.198-3.199v-1.066H54.37c.59 0 1.067.477 1.067 1.066v4.265c0 .588-.478 1.066-1.067 1.066H3.198a1.066 1.066 0 0 1-1.066-1.066v-4.265Z"/>
</symbol>

<symbol id="icon_astronaut" viewBox="0 0 64 64">
<path d="M63.948 9.048a1.068 1.068 0 0 0-.86-.725l-3.822-.556-1.71-3.462c-.358-.73-1.553-.73-1.912 0l-1.71 3.462-3.82.556a1.066 1.066 0 0 0-.592 1.819l2.765 2.695-.653 3.806c-.068.4.096.804.424 1.043.332.241.765.271 1.124.081L56.6 15.97l3.418 1.797a1.068 1.068 0 0 0 1.547-1.124l-.652-3.806 2.766-2.695a1.07 1.07 0 0 0 .27-1.094Zm-4.926 2.654c-.25.244-.366.598-.306.944l.382 2.228-2.001-1.051a1.063 1.063 0 0 0-.994 0l-2.001 1.051.382-2.228a1.068 1.068 0 0 0-.307-.944l-1.62-1.579 2.238-.325c.348-.05.648-.269.803-.584l1-2.026L57.6 9.214c.156.315.456.534.804.584l2.237.325-1.618 1.579ZM52.267 41.044h-2.134v2.134h2.134v-2.134ZM52.267 45.311h-2.134v2.134h2.134V45.31Z"/>
<path d="M54.4 43.178h-2.133v2.133H54.4v-2.133ZM50.134 43.178H48v2.133h2.134v-2.133ZM44.8 52.778h-2.133v2.133H44.8v-2.133ZM44.8 57.045h-2.133v2.133H44.8v-2.133ZM46.934 54.911H44.8v2.134h2.134V54.91Z"/>
<path d="M42.667 54.911h-2.134v2.134h2.134V54.91ZM32 48.511h-2.133v2.134H32V48.51ZM32 52.778h-2.133v2.133H32v-2.133ZM34.133 50.645H32v2.133h2.133v-2.133ZM29.867 50.645h-2.134v2.133h2.134v-2.133ZM11.733 12.244H9.6v2.133h2.133v-2.133ZM11.733 16.51H9.6v2.134h2.133v-2.133ZM13.866 14.377h-2.133v2.134h2.133v-2.134ZM9.6 14.377H7.466v2.134H9.6v-2.134Z"/>
<path d="M49.43 28.319a3.548 3.548 0 0 0-2.377-1.41 3.553 3.553 0 0 0-2.68.705l-2.503 1.919h-.001l-3.795 2.835-2.716-1.082c4.842-2.172 8.227-7.016 8.227-12.64C43.585 11 37.34 4.78 29.663 4.78 21.986 4.78 15.74 11 15.74 18.646c0 2.771.828 5.348 2.24 7.517l-5.528-.048h-.01c-.017 0-.03.009-.047.01a1.04 1.04 0 0 0-.31.061c-.026.01-.052.015-.077.027-.012.005-.025.006-.038.013l-6.466 3.193h-.002l-3.787 1.822a.82.82 0 0 0-.126.07A3.56 3.56 0 0 0 .393 35.9c.44.858 1.19 1.49 2.112 1.779a3.558 3.558 0 0 0 2.757-.257l2.776-1.476 4.528-2.339 2.714-.015-10.884 10.83c0 .002-.002.002-.003.003l-2.677 2.666a3.298 3.298 0 0 0-.98 2.356c0 .89.347 1.727.98 2.357.65.647 1.504.97 2.358.97.856 0 1.709-.323 2.36-.97l2.629-2.617 3.482-2.6 1.801 1.794-3.523 3.508-.003.003-2.678 2.666a3.298 3.298 0 0 0-.98 2.355c0 .89.348 1.727.98 2.358.65.646 1.505.97 2.36.97.854 0 1.71-.324 2.36-.97l2.679-2.667 4.285-4.266c0-.002 0-.003.002-.004l2.019-2-.008-.007c.013-.013.031-.017.044-.031L32.215 38.98l6.942.987a1.052 1.052 0 0 0 .525-.066c.035-.013.066-.03.1-.047.038-.019.078-.03.114-.054l6.427-4.267c.024-.016.036-.041.059-.059.025-.02.057-.028.08-.05l2.544-2.383a3.558 3.558 0 0 0 .423-4.723ZM4.26 35.54c-.346.186-.74.223-1.116.104a1.43 1.43 0 0 1-.425-2.52l2.628-1.264.632 1.849.266.776L4.26 35.54Zm6.995-3.655-3.097 1.6-.51-1.494-.367-1.073 4.053-2-.079 2.967Zm30.199-13.241c0 1.837-.438 3.57-1.198 5.119l-8.363-3.798a3.722 3.722 0 0 0-1.576-2.776l2.928-9.72C38 8.98 41.454 13.416 41.454 18.643Zm-23.578 0c0-6.47 5.289-11.734 11.789-11.734.506 0 1 .043 1.49.105l-2.864 9.507c-.038 0-.075-.011-.114-.011a3.743 3.743 0 0 0-3.745 3.733 3.743 3.743 0 0 0 3.745 3.733c1.389 0 2.589-.766 3.236-1.889l7.725 3.51c-2.15 2.893-5.59 4.78-9.473 4.78-6.5 0-11.789-5.265-11.789-11.734Zm11.913 1.6c0 .882-.724 1.6-1.612 1.6a1.608 1.608 0 0 1-1.612-1.6c0-.882.723-1.6 1.612-1.6.889 0 1.612.718 1.612 1.6ZM4.929 50.292a1.217 1.217 0 0 1-1.708.002 1.187 1.187 0 0 1 0-1.689l1.924-1.917 1.702 1.695-1.917 1.91Zm6.428 7.467a1.216 1.216 0 0 1-1.71.002 1.188 1.188 0 0 1 0-1.689l1.926-1.918.805.801.899.894-1.92 1.91Zm6.964-6.937-.004.002-3.53 3.52-.805-.801-.898-.894 3.527-3.51v-.002s.002 0 .003-.002c.08-.08.13-.176.18-.27.013-.028.04-.052.052-.08.033-.083.038-.171.05-.258.007-.049.028-.095.028-.145 0-.071-.025-.14-.04-.211-.013-.064-.013-.13-.037-.191-.04-.1-.11-.189-.183-.275-.02-.024-.027-.054-.05-.076h-.001l-.002-.004-3.214-3.2c-.034-.034-.078-.048-.116-.077a1.026 1.026 0 0 0-.174-.115.99.99 0 0 0-.187-.065 1.022 1.022 0 0 0-.206-.04 1.035 1.035 0 0 0-.19.01 1.068 1.068 0 0 0-.209.04.99.99 0 0 0-.188.09c-.04.022-.085.03-.122.057l-3.547 2.648-1.801-1.794 4.798-4.773 8.72 8.578-1.854 1.838Zm13.637-14.034c-.03-.004-.06.008-.09.006a1.044 1.044 0 0 0-.23.014c-.061.01-.119.022-.177.042a.981.981 0 0 0-.193.094c-.06.036-.114.075-.166.123-.026.022-.057.033-.08.058l-9.397 10.292-8.656-8.514 5.666-5.636a1.068 1.068 0 0 0-.759-1.822l-4.437.026.055-3.215 6.208.053a13.897 13.897 0 0 0 9.963 4.202c.875 0 1.728-.09 2.559-.245.08.064.159.129.26.17l4.819 1.92.305 1.516.356 1.77-6.006-.854Zm8.083.357-.627-3.116 2.893-2.16.758 1.005 1.136 1.508-4.16 2.763Zm7.507-5.662-1.676 1.57-1.862-2.473 1.663-1.274c.31-.24.701-.336 1.085-.286.387.054.728.256.96.568.434.584.36 1.398-.17 1.895Z"/>
<path d="m27.204 37.088-4.286-4.267a1.066 1.066 0 0 0-1.505 0l-4.285 4.267a1.072 1.072 0 0 0 0 1.513l4.285 4.266a1.066 1.066 0 0 0 1.505 0l4.286-4.266a1.067 1.067 0 0 0 0-1.513Zm-5.038 3.518-2.773-2.762 2.773-2.761 2.775 2.761-2.775 2.762ZM34.328 10.142l-.515 2.071c.142.035 3.476.904 3.476 4.298h2.133c0-4.034-3.331-5.931-5.093-6.37ZM39.422 18.644h-2.133v2.134h2.133v-2.134Z"/>
</symbol>

<!-- social -->
<symbol id="icon_linkedin"  viewBox="0 0 16 16">
<path d="M15.996 16H16V10.13c0-2.87-.618-5.082-3.974-5.082-1.613 0-2.696.886-3.138 1.725h-.047V5.317H5.66V16h3.314V10.71c0-1.393.264-2.74 1.988-2.74 1.7 0 1.725 1.59 1.725 2.83V16h3.31ZM.264 5.318h3.317V16H.264V5.318ZM1.921 0C.861 0 .001.86.001 1.92c0 1.06.86 1.94 1.92 1.94 1.061 0 1.922-.88 1.922-1.94S2.98 0 1.92 0Z"/>
</symbol>

<symbol id="icon_facebook"  viewBox="0 0 16 16"> 
<path d="M10.665 2.657h1.46V.113A18.862 18.862 0 0 0 9.997 0C7.891 0 6.45 1.325 6.45 3.76V6H4.125v2.844h2.324V16h2.849V8.845h2.23L11.882 6H9.297V4.04c.001-.822.222-1.384 1.368-1.384Z"/>
</symbol>

<symbol id="icon_twitter" viewBox="0 0 16 16">
<path d="M16 3.039a6.839 6.839 0 0 1-1.89.518 3.262 3.262 0 0 0 1.443-1.813 6.555 6.555 0 0 1-2.08.794A3.28 3.28 0 0 0 7.799 4.78c0 .26.022.51.076.748a9.284 9.284 0 0 1-6.761-3.431 3.285 3.285 0 0 0 1.008 4.384A3.24 3.24 0 0 1 .64 6.078v.036a3.295 3.295 0 0 0 2.628 3.223 3.274 3.274 0 0 1-.86.108 2.9 2.9 0 0 1-.621-.056 3.311 3.311 0 0 0 3.065 2.285 6.59 6.59 0 0 1-4.067 1.399c-.269 0-.527-.012-.785-.045A9.234 9.234 0 0 0 5.032 14.5c6.036 0 9.336-5 9.336-9.334 0-.145-.005-.285-.012-.424A6.544 6.544 0 0 0 16 3.039Z"/>
</symbol>

<symbol id="icon_instagram" viewBox="0 0 16 16">
<path d="M15.984 4.704c-.037-.85-.175-1.435-.372-1.941a3.905 3.905 0 0 0-.925-1.419 3.938 3.938 0 0 0-1.416-.922c-.51-.197-1.09-.335-1.94-.372C10.473.01 10.2 0 8.03 0 5.857 0 5.585.01 4.732.047c-.85.037-1.434.175-1.94.372a3.904 3.904 0 0 0-1.42.925A3.94 3.94 0 0 0 .45 2.76C.253 3.27.116 3.85.078 4.7c-.04.857-.05 1.13-.05 3.301 0 2.173.01 2.445.047 3.298.037.85.175 1.435.372 1.941.203.538.519 1.019.925 1.42.4.405.885.721 1.416.921.51.197 1.09.335 1.941.372.853.038 1.125.047 3.298.047 2.172 0 2.444-.01 3.297-.047.85-.037 1.435-.175 1.941-.372a4.093 4.093 0 0 0 2.341-2.34c.197-.51.335-1.092.372-1.942.038-.853.047-1.125.047-3.297 0-2.173-.003-2.445-.04-3.298Zm-1.44 6.532c-.035.782-.166 1.204-.276 1.485a2.655 2.655 0 0 1-1.519 1.52c-.281.109-.706.24-1.484.274-.844.038-1.097.047-3.232.047-2.135 0-2.391-.01-3.232-.047-.782-.034-1.204-.165-1.485-.275a2.462 2.462 0 0 1-.919-.597 2.487 2.487 0 0 1-.597-.919c-.11-.281-.24-.706-.275-1.484-.037-.844-.047-1.098-.047-3.232 0-2.135.01-2.391.047-3.232.035-.782.166-1.203.275-1.485.128-.347.332-.662.6-.919.26-.265.572-.469.92-.597.28-.11.706-.24 1.484-.275.844-.037 1.097-.047 3.232-.047 2.138 0 2.39.01 3.232.047.781.035 1.203.166 1.484.275.347.128.663.332.92.597.265.26.468.572.596.92.11.28.241.706.275 1.484.038.844.047 1.097.047 3.232 0 2.135-.009 2.385-.046 3.229Z"/>
<path d="M8.03 3.891a4.111 4.111 0 0 0 0 8.22 4.111 4.111 0 0 0 0-8.22Zm0 6.777a2.667 2.667 0 1 1 0-5.334 2.667 2.667 0 0 1 0 5.334ZM13.262 3.729a.96.96 0 1 1-1.92 0 .96.96 0 0 1 1.92 0Z"/>
</symbol>

<symbol id="icon_fly" viewBox="0 0 24 24">
<path d="M24 2L0 13.25L7.66994 15.6172L19.5 6.375L10.5017 16.4913L10.509 16.4936L10.5 16.4913V22L14.8013 17.8183L20.2501 19.5L24 2Z" />
</symbol>

<symbol id="icon_closed" viewBox="0 0 8 8">
 <path d="M8 0.805714L7.19429 0L4 3.19429L0.805714 0L0 0.805714L3.19429 4L0 7.19429L0.805714 8L4 4.80571L7.19429 8L8 7.19429L4.80571 4L8 0.805714Z" />
</symbol>

<symbol id="icon_person" viewBox="0 0 18 18">
<path d="M9 9C10.6575 9 12 7.6575 12 6C12 4.3425 10.6575 3 9 3C7.3425 3 6 4.3425 6 6C6 7.6575 7.3425 9 9 9ZM9 10.5C6.9975 10.5 3 11.505 3 13.5V14.25C3 14.6625 3.3375 15 3.75 15H14.25C14.6625 15 15 14.6625 15 14.25V13.5C15 11.505 11.0025 10.5 9 10.5Z" />
</symbol>

<symbol id="icon_phone" viewBox="0 0 18 24">
<path d="M14.7263 13.8651L12.8881 13.6552C12.4467 13.6046 12.0125 13.7566 11.7013 14.0677L10.3697 15.3993C8.3217 14.3572 6.64276 12.6855 5.60067 10.6303L6.93947 9.29144C7.25065 8.98025 7.40263 8.54605 7.35197 8.1046L7.1421 6.28092C7.05526 5.55 6.44013 5 5.70198 5H4.45002C3.63226 5 2.952 5.68026 3.00266 6.49802C3.38621 12.6783 8.32894 17.6138 14.5019 17.9973C15.3197 18.048 15.9999 17.3677 15.9999 16.55V15.298C16.0072 14.5671 15.4572 13.952 14.7263 13.8651Z" />
</symbol>

<symbol id="icon_email"  viewBox="0 0 18 24">
<path d="M15 6H3C2.175 6 1.5075 6.675 1.5075 7.5L1.5 16.5C1.5 17.325 2.175 18 3 18H15C15.825 18 16.5 17.325 16.5 16.5V7.5C16.5 6.675 15.825 6 15 6ZM14.7 9.1875L9.3975 12.5025C9.1575 12.6525 8.8425 12.6525 8.6025 12.5025L3.3 9.1875C3.1125 9.0675 3 8.865 3 8.6475C3 8.145 3.5475 7.845 3.975 8.1075L9 11.25L14.025 8.1075C14.4525 7.845 15 8.145 15 8.6475C15 8.865 14.8875 9.0675 14.7 9.1875Z" />
</symbol>

<symbol id="icon_submit" viewBox="0 0 16 16">
 
  <path d="M11.4456 4.25506C11.6184 4.08965 11.8483 3.99821 12.0869 4.00003C12.3255 4.00184 12.5541 4.09677 12.7244 4.26478C12.8947 4.4328 12.9934 4.66075 12.9997 4.90055C13.006 5.14034 12.9194 5.37323 12.7582 5.55005L7.86357 11.7044C7.7794 11.7955 7.67782 11.8686 7.5649 11.9194C7.45198 11.9702 7.33003 11.9975 7.20636 11.9998C7.08268 12.0021 6.95981 11.9793 6.8451 11.9328C6.73038 11.8863 6.62618 11.817 6.53872 11.729L3.29283 8.46564C3.20243 8.38096 3.12993 8.27884 3.07965 8.16537C3.02936 8.05191 3.00232 7.92942 3.00014 7.80522C2.99796 7.68102 3.02069 7.55765 3.06696 7.44248C3.11323 7.3273 3.18211 7.22267 3.26947 7.13483C3.35684 7.047 3.4609 6.97775 3.57547 6.93123C3.69003 6.88471 3.81273 6.86186 3.93627 6.86405C4.0598 6.86624 4.18163 6.89343 4.29449 6.94398C4.40734 6.99454 4.50892 7.06743 4.59315 7.15831L7.16189 9.73967L11.4223 4.28219C11.4299 4.27269 11.4381 4.26364 11.4468 4.25506H11.4456Z"/>

</symbol>

<symbol id="icon_burger" viewBox="0 0 24 24">
<path fill-rule="evenodd" clip-rule="evenodd" d="M3.59961 6.00078C3.59961 5.68252 3.72604 5.3773 3.95108 5.15225C4.17612 4.92721 4.48135 4.80078 4.79961 4.80078H19.1996C19.5179 4.80078 19.8231 4.92721 20.0481 5.15225C20.2732 5.3773 20.3996 5.68252 20.3996 6.00078C20.3996 6.31904 20.2732 6.62427 20.0481 6.84931C19.8231 7.07435 19.5179 7.20078 19.1996 7.20078H4.79961C4.48135 7.20078 4.17612 7.07435 3.95108 6.84931C3.72604 6.62427 3.59961 6.31904 3.59961 6.00078Z" fill="#2F2F37"/>
<path fill-rule="evenodd" clip-rule="evenodd" d="M3.59961 12.0008C3.59961 11.6825 3.72604 11.3773 3.95108 11.1523C4.17612 10.9272 4.48135 10.8008 4.79961 10.8008H19.1996C19.5179 10.8008 19.8231 10.9272 20.0481 11.1523C20.2732 11.3773 20.3996 11.6825 20.3996 12.0008C20.3996 12.319 20.2732 12.6243 20.0481 12.8493C19.8231 13.0744 19.5179 13.2008 19.1996 13.2008H4.79961C4.48135 13.2008 4.17612 13.0744 3.95108 12.8493C3.72604 12.6243 3.59961 12.319 3.59961 12.0008Z" fill="#2F2F37"/>
<path fill-rule="evenodd" clip-rule="evenodd" d="M3.59961 18.0008C3.59961 17.6825 3.72604 17.3773 3.95108 17.1523C4.17612 16.9272 4.48135 16.8008 4.79961 16.8008H19.1996C19.5179 16.8008 19.8231 16.9272 20.0481 17.1523C20.2732 17.3773 20.3996 17.6825 20.3996 18.0008C20.3996 18.319 20.2732 18.6243 20.0481 18.8493C19.8231 19.0744 19.5179 19.2008 19.1996 19.2008H4.79961C4.48135 19.2008 4.17612 19.0744 3.95108 18.8493C3.72604 18.6243 3.59961 18.319 3.59961 18.0008Z" fill="#2F2F37"/>
</symbol>

</svg>

